<?xml version="1.0" encoding="UTF-8" standalone="no"?>
<!DOCTYPE svg PUBLIC "-//W3C//DTD SVG 1.1//EN" "http://www.w3.org/Graphics/SVG/1.1/DTD/svg11.dtd">
<svg width="100%" height="100%" viewBox="0 0 1302 1302" version="1.1" xmlns="http://www.w3.org/2000/svg" xmlns:xlink="http://www.w3.org/1999/xlink" xml:space="preserve" xmlns:serif="http://www.serif.com/" style="fill-rule:evenodd;clip-rule:evenodd;stroke-linejoin:round;stroke-miterlimit:2;">
    <g transform="matrix(1,0,0,1,-7412.59,-5792.45)">
        <g transform="matrix(1.60029,0,0,1.8006,-3529.71,-2263.36)">
            <g transform="matrix(0.624886,0,0,0.555372,2205.67,1257.01)">
                <rect x="7412.59" y="5792.45" width="1301.35" height="1301.35" style="fill:none;"/>
                <g transform="matrix(13.0108,0,0,13.0108,9633.11,5368.94)">
                    <g transform="matrix(1,0,0,1,-172.667,30.5398)">
                        <path d="M52,81.68L51.35,81.12C50.87,80.71 50.3,80.21 49.75,79.66L49.64,79.57L49.49,79.44C45.509,75.684 42.216,71.261 39.76,66.37C35.731,58.476 34.293,49.508 35.65,40.75C37.26,30.28 42.65,20.75 51.27,13.31C51.688,12.951 52.312,12.951 52.73,13.31C61.34,20.79 66.73,30.31 68.35,40.75C68.684,42.88 68.851,45.034 68.85,47.19C68.854,53.858 67.274,60.432 64.24,66.37C61.784,71.261 58.491,75.684 54.51,79.44L54.42,79.52L54.25,79.66C53.69,80.21 53.13,80.66 52.65,81.12L52,81.68Z" style="fill:rgb(6,6,6);fill-rule:nonzero;"/>
                        <clipPath id="_clip1">
                            <path d="M52,81.68L51.35,81.12C50.87,80.71 50.3,80.21 49.75,79.66L49.64,79.57L49.49,79.44C45.509,75.684 42.216,71.261 39.76,66.37C35.731,58.476 34.293,49.508 35.65,40.75C37.26,30.28 42.65,20.75 51.27,13.31C51.688,12.951 52.312,12.951 52.73,13.31C61.34,20.79 66.73,30.31 68.35,40.75C68.684,42.88 68.851,45.034 68.85,47.19C68.854,53.858 67.274,60.432 64.24,66.37C61.784,71.261 58.491,75.684 54.51,79.44L54.42,79.52L54.25,79.66C53.69,80.21 53.13,80.66 52.65,81.12L52,81.68Z" clip-rule="nonzero"/>
                        </clipPath>
                        <g clip-path="url(#_clip1)">
                            <g transform="matrix(1,0,0,1,172.667,-30.5398)">
                                <g transform="matrix(0.0768589,0,0,0.0768589,-612.771,-318.353)">
                                    <text x="5850.16px" y="5291.44px" style="font-family:'Unbounded-Regular_ExtraBold', 'Unbounded';font-size:271.242px;fill:rgb(250,150,55);">DeSci</text>
                                </g>
                                <g transform="matrix(0.0768589,0,0,0.0768589,-600.237,-300.148)">
                                    <text x="5850.16px" y="5291.44px" style="font-family:'Unbounded-Regular_ExtraBold', 'Unbounded';font-size:271.242px;fill:rgb(176,251,55);">W<tspan x="6189.75px " y="5291.44px ">o</tspan>rld</text>
                                </g>
                            </g>
                        </g>
                    </g>
                    <g transform="matrix(1,0,0,1,-172.667,30.5398)">
                        <path d="M53.899,83.546L54,83.81L52,83.69C51.59,83.69 51.22,83.69 50.85,83.61C50.3,83.61 49.71,83.51 49.12,83.43C35.49,81.8 24,74.43 17.53,63.21C13.888,56.813 11.991,49.57 12.03,42.21C12.043,39.285 12.318,36.366 12.85,33.49L13,32.6L13.87,32.6C22.191,32.861 30.275,35.45 37.2,40.07L52.981,81.158L66.8,40.07C73.726,35.462 81.805,32.884 90.12,32.63L90.99,32.63L91.15,33.48C91.69,36.346 91.975,39.254 92,42.17C92.039,49.53 90.142,56.773 86.5,63.17C80,74.43 68.51,81.8 54.88,83.43C54.558,83.475 54.23,83.514 53.899,83.546Z" style="fill:rgb(6,6,6);"/>
                        <clipPath id="_clip2">
                            <path d="M53.899,83.546L54,83.81L52,83.69C51.59,83.69 51.22,83.69 50.85,83.61C50.3,83.61 49.71,83.51 49.12,83.43C35.49,81.8 24,74.43 17.53,63.21C13.888,56.813 11.991,49.57 12.03,42.21C12.043,39.285 12.318,36.366 12.85,33.49L13,32.6L13.87,32.6C22.191,32.861 30.275,35.45 37.2,40.07L52.981,81.158L66.8,40.07C73.726,35.462 81.805,32.884 90.12,32.63L90.99,32.63L91.15,33.48C91.69,36.346 91.975,39.254 92,42.17C92.039,49.53 90.142,56.773 86.5,63.17C80,74.43 68.51,81.8 54.88,83.43C54.558,83.475 54.23,83.514 53.899,83.546Z"/>
                        </clipPath>
                        <g clip-path="url(#_clip2)">
                            <g transform="matrix(1,0,0,1,172.667,-30.5398)">
                                <g transform="matrix(0.0768589,0,0,0.0768589,-612.771,-318.353)">
                                    <text x="5850.16px" y="5291.44px" style="font-family:'Unbounded-Regular_ExtraBold', 'Unbounded';font-size:271.242px;fill:rgb(250,150,55);">DeSci</text>
                                </g>
                                <g transform="matrix(0.0768589,0,0,0.0768589,-600.237,-300.148)">
                                    <text x="5850.16px" y="5291.44px" style="font-family:'Unbounded-Regular_ExtraBold', 'Unbounded';font-size:271.242px;fill:rgb(176,251,55);">W<tspan x="6189.75px " y="5291.44px ">o</tspan>rld</text>
                                </g>
                            </g>
                        </g>
                    </g>
                    <g transform="matrix(1,0,0,1,-172.667,30.5398)">
                        <path d="M70.75,91C64.113,90.919 57.625,89.012 52,85.49C46.366,89.01 39.873,90.917 33.23,91C20.23,91 8.58,83.37 2.11,70.58L2,70.33L2,69.61L2.38,69.29C7.002,65.594 12.411,63.007 18.19,61.73L85.83,61.73C91.609,63.007 97.018,65.594 101.64,69.29L102.02,69.59L102.02,70.31L101.91,70.54C95.42,83.33 83.78,91 70.75,91Z" style="fill:rgb(6,6,6);fill-rule:nonzero;"/>
                        <clipPath id="_clip3">
                            <path d="M70.75,91C64.113,90.919 57.625,89.012 52,85.49C46.366,89.01 39.873,90.917 33.23,91C20.23,91 8.58,83.37 2.11,70.58L2,70.33L2,69.61L2.38,69.29C7.002,65.594 12.411,63.007 18.19,61.73L85.83,61.73C91.609,63.007 97.018,65.594 101.64,69.29L102.02,69.59L102.02,70.31L101.91,70.54C95.42,83.33 83.78,91 70.75,91Z" clip-rule="nonzero"/>
                        </clipPath>
                        <g clip-path="url(#_clip3)">
                            <g transform="matrix(1,0,0,1,172.667,-30.5398)">
                                <g transform="matrix(0.0768589,0,0,0.0768589,-612.771,-318.353)">
                                    <text x="5850.16px" y="5291.44px" style="font-family:'Unbounded-Regular_ExtraBold', 'Unbounded';font-size:271.242px;fill:rgb(250,150,55);">DeSci</text>
                                </g>
                                <g transform="matrix(0.0768589,0,0,0.0768589,-600.237,-300.148)">
                                    <text x="5850.16px" y="5291.44px" style="font-family:'Unbounded-Regular_ExtraBold', 'Unbounded';font-size:271.242px;fill:rgb(176,251,55);">W<tspan x="6189.75px " y="5291.44px ">o</tspan>rld</text>
                                </g>
                            </g>
                        </g>
                    </g>
                </g>
            </g>
        </g>
    </g>
</svg>
