<?xml version="1.0" encoding="UTF-8" standalone="no"?>
<!DOCTYPE svg PUBLIC "-//W3C//DTD SVG 1.1//EN" "http://www.w3.org/Graphics/SVG/1.1/DTD/svg11.dtd">
<svg width="100%" height="100%" viewBox="0 0 25 25" version="1.1" xmlns="http://www.w3.org/2000/svg" xmlns:xlink="http://www.w3.org/1999/xlink" xml:space="preserve" xmlns:serif="http://www.serif.com/" style="fill-rule:evenodd;clip-rule:evenodd;stroke-linejoin:round;stroke-miterlimit:2;">
    <g transform="matrix(1,0,0,1,-54649.5,-28420.9)">
        <g transform="matrix(1,0,0,1,55129.1,27259.2)">
            <g transform="matrix(1.07975,0,0,1.07975,-59401.3,-29561.5)">
                <rect x="54569.6" y="28453.9" width="23.153" height="23.153" style="fill:none;"/>
                <clipPath id="_clip1">
                    <rect x="54569.6" y="28453.9" width="23.153" height="23.153"/>
                </clipPath>
                <g clip-path="url(#_clip1)">
                    <g transform="matrix(0.832836,0,0,0.832836,54515.2,28447.9)">
                        <path d="M83.012,11.1L82.677,11.481C86.722,12.718 88.6,14.503 88.6,14.503C82.947,11.407 76.308,11.407 70.822,13.815C69.939,14.224 69.418,14.503 69.418,14.503C69.418,14.503 71.389,12.625 75.676,11.388L75.434,11.1C75.434,11.1 72.17,11.026 68.749,13.601C68.749,13.601 65.318,19.812 65.318,27.474C65.318,27.474 67.317,30.923 72.58,31.091C72.58,31.091 73.463,30.021 74.179,29.119C71.157,28.218 70.013,26.312 70.013,26.312C70.367,26.553 70.943,26.879 70.99,26.907C75.006,29.157 80.715,29.891 85.838,27.743C86.675,27.437 87.596,26.981 88.572,26.34C88.572,26.34 87.382,28.292 84.267,29.175C84.983,30.077 85.838,31.1 85.838,31.1C91.101,30.933 93.119,27.483 93.119,27.483C93.119,19.822 89.688,13.611 89.688,13.611C86.275,11.026 83.012,11.1 83.012,11.1ZM74.783,25.261C73.454,25.261 72.356,24.071 72.356,22.62C72.356,21.17 73.426,19.98 74.783,19.98C76.141,19.98 77.238,21.17 77.21,22.62C77.21,24.071 76.141,25.261 74.783,25.261ZM83.467,25.261C82.138,25.261 81.041,24.071 81.041,22.62C81.041,21.17 82.11,19.98 83.467,19.98C84.825,19.98 85.894,21.17 85.894,22.62C85.894,24.071 84.825,25.261 83.467,25.261Z" style="fill:rgb(243,243,243);fill-rule:nonzero;"/>
                    </g>
                </g>
            </g>
        </g>
    </g>
</svg>
