<?xml version="1.0" encoding="UTF-8" standalone="no"?>
<!DOCTYPE svg PUBLIC "-//W3C//DTD SVG 1.1//EN" "http://www.w3.org/Graphics/SVG/1.1/DTD/svg11.dtd">
<svg width="100%" height="100%" viewBox="0 0 25 25" version="1.1" xmlns="http://www.w3.org/2000/svg" xmlns:xlink="http://www.w3.org/1999/xlink" xml:space="preserve" xmlns:serif="http://www.serif.com/" style="fill-rule:evenodd;clip-rule:evenodd;stroke-linejoin:round;stroke-miterlimit:2;">
    <g transform="matrix(1,0,0,1,-54999.9,-28420.9)">
        <g transform="matrix(1,0,0,1,55129.1,27259.2)">
            <g transform="matrix(1.07975,0,0,1.07975,-59050.9,-29561.5)">
                <rect x="54569.6" y="28453.9" width="23.153" height="23.153" style="fill:none;"/>
                <clipPath id="_clip1">
                    <rect x="54569.6" y="28453.9" width="23.153" height="23.153"/>
                </clipPath>
                <g clip-path="url(#_clip1)">
                    <g transform="matrix(1.02712,0,0,1.02712,54704.3,27262.6)">
                        <g transform="matrix(1,0,0,1,-544.973,1153.2)">
                            <rect x="414.154" y="14.317" width="4.676" height="15.033" style="fill:rgb(243,243,243);fill-rule:nonzero;"/>
                        </g>
                        <g transform="matrix(1,0,0,1,-544.973,1153.2)">
                            <path d="M416.489,12.264C417.984,12.264 419.196,11.052 419.196,9.557C419.196,8.062 417.984,6.85 416.489,6.85C414.994,6.85 413.782,8.062 413.782,9.557C413.782,11.052 414.994,12.264 416.489,12.264Z" style="fill:rgb(243,243,243);fill-rule:nonzero;"/>
                        </g>
                        <g transform="matrix(1,0,0,1,-544.973,1153.2)">
                            <path d="M436.324,29.35L431.655,29.35L431.655,22.037C431.655,20.294 431.62,18.051 429.23,18.051C426.797,18.051 426.424,19.949 426.424,21.911L426.424,29.35L421.755,29.35L421.755,14.317L426.234,14.317L426.234,16.37L426.298,16.37C426.923,15.189 428.449,13.945 430.72,13.945C435.445,13.945 436.324,17.059 436.324,21.109L436.324,29.35Z" style="fill:rgb(243,243,243);fill-rule:nonzero;"/>
                        </g>
                    </g>
                </g>
            </g>
        </g>
    </g>
</svg>
